<svg width="60" height="60" viewBox="0 0 60 60" fill="none" xmlns="http://www.w3.org/2000/svg">
<circle cx="30" cy="30" r="30" fill="#1B1B1B"/>
<circle cx="30" cy="30" r="23.5" fill="#1B1B1B" stroke="#1ADB5C" stroke-width="3"/>
<path d="M20 33.1078V35.1072C20 36.3513 20 36.9733 20.2725 37.4488C20.5122 37.8668 20.8946 38.2066 21.365 38.4196C21.8987 38.6617 22.5987 38.6617 23.9963 38.6617H42.5M20 33.1078V22M20 33.1078L24.8163 29.5422L24.8212 29.5389C25.6925 28.8935 26.1287 28.5703 26.6025 28.4392C27.1614 28.2839 27.7639 28.3079 28.305 28.507C28.7638 28.6769 29.165 29.0335 29.97 29.7488L29.9775 29.7555C30.795 30.4819 31.2038 30.8463 31.67 31.014C32.2218 31.2138 32.8358 31.2319 33.4012 31.0651C33.88 30.9229 34.3175 30.583 35.1925 29.9032L42.5 24.2216" stroke="white" stroke-width="2" stroke-linecap="round" stroke-linejoin="round"/>
</svg>
