<svg width="34" height="34" viewBox="0 0 34 34" fill="none" xmlns="http://www.w3.org/2000/svg">
<mask id="path-1-outside-1_109_666" maskUnits="userSpaceOnUse" x="0" y="-6.10352e-05" width="34" height="34" fill="black">
<rect fill="white" y="-6.10352e-05" width="34" height="34"/>
<path d="M32 16.9999C32 25.2842 25.2843 31.9999 17 31.9999C8.71573 31.9999 2 25.2842 2 16.9999C2 8.71567 8.71573 1.99994 17 1.99994C25.2843 1.99994 32 8.71567 32 16.9999ZM3.5 16.9999C3.5 24.4558 9.54416 30.4999 17 30.4999C24.4558 30.4999 30.5 24.4558 30.5 16.9999C30.5 9.54409 24.4558 3.49994 17 3.49994C9.54416 3.49994 3.5 9.54409 3.5 16.9999Z"/>
</mask>
<path d="M32 16.9999C32 25.2842 25.2843 31.9999 17 31.9999C8.71573 31.9999 2 25.2842 2 16.9999C2 8.71567 8.71573 1.99994 17 1.99994C25.2843 1.99994 32 8.71567 32 16.9999ZM3.5 16.9999C3.5 24.4558 9.54416 30.4999 17 30.4999C24.4558 30.4999 30.5 24.4558 30.5 16.9999C30.5 9.54409 24.4558 3.49994 17 3.49994C9.54416 3.49994 3.5 9.54409 3.5 16.9999Z" fill="#1ADB5C"/>
<path d="M32 16.9999C32 25.2842 25.2843 31.9999 17 31.9999C8.71573 31.9999 2 25.2842 2 16.9999C2 8.71567 8.71573 1.99994 17 1.99994C25.2843 1.99994 32 8.71567 32 16.9999ZM3.5 16.9999C3.5 24.4558 9.54416 30.4999 17 30.4999C24.4558 30.4999 30.5 24.4558 30.5 16.9999C30.5 9.54409 24.4558 3.49994 17 3.49994C9.54416 3.49994 3.5 9.54409 3.5 16.9999Z" stroke="#1E1E1E" stroke-width="4" mask="url(#path-1-outside-1_109_666)"/>
<path d="M23.1959 21.2619H21.8211V20.0403C21.8211 19.9731 21.7593 19.9181 21.6836 19.9181H20.8588C20.7832 19.9181 20.7213 19.9731 20.7213 20.0403V21.2619H19.3466C19.271 21.2619 19.2091 21.3169 19.2091 21.3841V22.1171C19.2091 22.1843 19.271 22.2393 19.3466 22.2393H20.7213V23.4609C20.7213 23.5281 20.7832 23.583 20.8588 23.583H21.6836C21.7593 23.583 21.8211 23.5281 21.8211 23.4609V22.2393H23.1959C23.2715 22.2393 23.3333 22.1843 23.3333 22.1171V21.3841C23.3333 21.3169 23.2715 21.2619 23.1959 21.2619ZM14.2858 17.084C14.2703 16.9511 14.2617 16.8167 14.2617 16.6808C14.2617 16.438 14.2875 16.2013 14.3356 15.9708C14.3477 15.9158 14.315 15.8593 14.2583 15.8364C14.0246 15.7432 13.8098 15.615 13.6242 15.4531C13.4055 15.2647 13.2334 15.0378 13.1189 14.787C13.0044 14.5361 12.95 14.2668 12.9592 13.9963C12.9746 13.5061 13.1963 13.0404 13.583 12.6891C14.0074 12.3028 14.5779 12.0921 15.1845 12.0982C15.7327 12.1028 16.262 12.2906 16.6624 12.6235C16.7981 12.7365 16.915 12.8617 17.013 12.9961C17.0473 13.0434 17.1143 13.0633 17.1728 13.0449C17.4752 12.9518 17.7948 12.8861 18.1231 12.8556C18.2193 12.8464 18.2743 12.7548 18.2313 12.6785C17.6728 11.6966 16.5318 11.0186 15.212 11.0002C13.308 10.9743 11.7202 12.3624 11.7202 14.0543C11.7202 15.0133 12.2168 15.8684 12.9953 16.4289C12.4488 16.6533 11.9453 16.9633 11.5088 17.3512C10.5671 18.1865 10.0344 19.289 10 20.4664C9.99958 20.4827 10.0028 20.4989 10.0095 20.514C10.0162 20.5292 10.0263 20.5431 10.0391 20.5547C10.0519 20.5664 10.0672 20.5757 10.0841 20.582C10.101 20.5883 10.1192 20.5916 10.1375 20.5916H11.1016C11.1754 20.5916 11.2373 20.5397 11.239 20.474C11.2717 19.5883 11.6755 18.7591 12.3852 18.13C12.8904 17.681 13.5091 17.3695 14.1844 17.2183C14.2497 17.2015 14.2944 17.145 14.2858 17.084ZM22.0273 16.6808C22.0273 15.0102 20.5168 13.6527 18.6437 13.6267C16.7397 13.6008 15.1536 14.9889 15.1536 16.6808C15.1536 17.6398 15.652 18.4949 16.4287 19.0554C15.8766 19.2828 15.3739 19.595 14.944 19.9777C14.0023 20.813 13.4696 21.9155 13.4352 23.0913C13.4347 23.1076 13.4379 23.1239 13.4446 23.139C13.4513 23.1542 13.4614 23.168 13.4742 23.1797C13.487 23.1914 13.5023 23.2006 13.5192 23.207C13.5361 23.2133 13.5543 23.2166 13.5727 23.2166H14.535C14.6089 23.2166 14.6707 23.1646 14.6725 23.099C14.7051 22.2133 15.1089 21.3841 15.8186 20.755C16.5593 20.0968 17.5422 19.7349 18.5905 19.7349C20.4876 19.7349 22.0273 18.3682 22.0273 16.6808ZM20.1456 18.0628C19.7298 18.4323 19.1782 18.6354 18.5905 18.6354C18.0028 18.6354 17.4511 18.4323 17.0353 18.0628C16.8278 17.8794 16.6638 17.6608 16.5531 17.42C16.4424 17.1792 16.3872 16.9211 16.3909 16.661C16.396 16.1601 16.6211 15.676 17.0147 15.3172C17.4271 14.9415 17.9787 14.7323 18.5681 14.7262C19.1507 14.7216 19.716 14.9232 20.1319 15.2851C20.5581 15.6562 20.7918 16.1525 20.7918 16.6808C20.7901 17.2031 20.5615 17.6933 20.1456 18.0628Z" fill="white"/>
</svg>
