<svg width="150" height="150" viewBox="0 0 150 150" fill="none" xmlns="http://www.w3.org/2000/svg">
<path d="M75 0C58.7409 -1.93888e-07 42.9221 5.28366 29.9268 15.055C16.9314 24.8263 7.46333 38.5561 2.94892 54.1759L4.13652 54.5192C8.57652 39.1568 17.8885 25.6533 30.6697 16.0431C43.4508 6.43278 59.0089 1.23621 75 1.23621L75 0Z" fill="#454545"/>
<path d="M75 18.75C69.2872 18.75 63.6078 19.6203 58.1571 21.3308L58.6304 22.8389C63.9279 21.1764 69.4478 20.3306 75 20.3306L75 18.75Z" fill="#454545"/>
<path d="M36.5597 33.9341C30.9773 39.1596 26.5189 45.4684 23.4569 52.475C20.3949 59.4816 18.7937 67.039 18.7509 74.6853L20.3341 74.6942C20.3756 67.2631 21.9318 59.9184 24.9077 53.109C27.8835 46.2996 32.2164 40.1684 37.6416 35.09L36.5597 33.9341Z" fill="#454545"/>
<path d="M37.8748 75C37.8748 68.2432 39.7003 61.612 43.1585 55.8072L44.4402 56.5708C41.1196 62.1446 39.3666 68.512 39.3666 75L37.8748 75Z" fill="#454545"/>
<path d="M74.8365 37.5C69.5269 37.5 64.2796 38.6606 59.4519 40.9028C54.6241 43.145 50.3291 46.4162 46.8593 50.4936L47.9723 51.4686C51.3041 47.5533 55.4282 44.4123 60.0639 42.2593C64.6996 40.1063 69.7381 38.9919 74.8365 38.9919L74.8365 37.5Z" fill="#454545"/>
<path d="M71.3271 57.3151C68.3425 57.8692 65.537 59.1398 63.1518 61.0176C60.7666 62.8953 58.873 65.3242 57.6337 68.0953L58.8553 68.6417C60.0062 66.0683 61.7646 63.8128 63.9796 62.0691C66.1946 60.3253 68.7998 59.1454 71.5714 58.6308L71.3271 57.3151Z" fill="#454545"/>
</svg>
